HIERARCHY
ROOT ui
{
	 OFFSET 0 0 0
	 CHANNELS 3 XPosition YPosition Z Position
	 EndSite
	 {
	 OFFSET 0 -1 0
	 }
}
ROOT li
{
	 OFFSET 0 0 0
	 CHANNELS 3 XPosition YPosition Z Position
	 EndSite
	 {
	 OFFSET 0 -1 0
	 }
}
ROOT ul
{
	 OFFSET 0 0 0
	 CHANNELS 3 XPosition YPosition Z Position
	 EndSite
	 {
	 OFFSET 0 -1 0
	 }
}
ROOT ll
{
	 OFFSET 0 0 0
	 CHANNELS 3 XPosition YPosition Z Position
	 EndSite
	 {
	 OFFSET 0 -1 0
	 }
}
ROOT tt
{
	 OFFSET 0 0 0
	 CHANNELS 3 XPosition YPosition Z Position
	 EndSite
	 {
	 OFFSET 0 -1 0
	 }
}
ROOT tb
{
	 OFFSET 0 0 0
	 CHANNELS 3 XPosition YPosition Z Position
	 EndSite
	 {
	 OFFSET 0 -1 0
	 }
}
ROOT td
{
	 OFFSET 0 0 0
	 CHANNELS 3 XPosition YPosition Z Position
	 EndSite
	 {
	 OFFSET 0 -1 0
	 }
}
ROOT v
{
	 OFFSET 0 0 0
	 CHANNELS 3 XPosition YPosition Z Position
	 EndSite
	 {
	 OFFSET 0 -1 0
	 }
}
ROOT bn
{
	 OFFSET 0 0 0
	 CHANNELS 3 XPosition YPosition Z Position
	 EndSite
	 {
	 OFFSET 0 -1 0
	 }
}
MOTION
Frames: 24
Frame Time: 0.002
-0.024493438720703125	-3.391300141811371E-4	0		0.43760861206054685	-2.370256103515625	0		-1.0862618408203124	0.14413540649414064	0		-0.6563269653320313	-2.72231982421875	0		2.757937744140625	-0.3011217346191406	0		4.08589111328125	0.05009477233886719	0		5.3188857421875	-0.021184751510620117	0		5.94002001953125	0.40766201782226563	0		-0.12422682189941406	5.91710009765625	0		
0.038837890625	0.003016875982284546	0		0.45977801513671873	-2.37722216796875	0		-1.0920369873046876	0.14162033081054687	0		-0.6549884643554688	-2.718948486328125	0		2.8031748046875	-0.3034534606933594	0		4.11355322265625	0.013054583549499512	0		5.33889453125	-0.03708938217163086	0		5.9351611328125	0.400170654296875	0		-0.13916468811035157	5.9067392578125	0		
-0.028949094772338868	-0.003480329990386963	0		0.41408486938476563	-2.379078857421875	0		-1.0207943115234375	0.13583229064941407	0		-0.65563623046875	-2.7185517578125	0		2.8465224609375	-0.3027583312988281	0		4.1348525390625	0.011119626998901367	0		5.37102880859375	-0.049196136474609374	0		5.929642578125	0.40968899536132813	0		-0.1408327178955078	5.90915576171875	0		
0.044366214752197264	-0.008303997039794921	0		0.4404388122558594	-2.3821279296875	0		-1.0873953857421874	0.1373004150390625	0		-0.7121703491210938	-2.71424560546875	0		2.8820419921875	-0.2949403991699219	0		4.1909404296875	-0.007395194053649902	0		5.40010400390625	-0.0682592010498047	0		5.92488330078125	0.4011866455078125	0		-0.19449049377441407	5.909416015625	0		
-0.03690446853637695	0.010403531074523926	0		0.417012939453125	-2.374368408203125	0		-1.08795703125	0.13767269897460938	0		-0.634722412109375	-2.715151123046875	0		2.93573876953125	-0.2794286193847656	0		4.1944775390625	-0.0010521090030670165	0		5.41750830078125	-0.07013629913330079	0		5.93330224609375	0.4004608459472656	0		-0.14386997985839844	5.92295556640625	0		
0.04633357238769531	-0.004605381965637207	0		0.4414404296875	-2.3784072265625	0		-1.08847900390625	0.13803237915039063	0		-0.707115234375	-2.707607666015625	0		2.94952978515625	-0.2602717590332031	0		4.234623046875	-0.02132375907897949	0		5.444951171875	-0.0721881332397461	0		5.92405859375	0.41801727294921875	0		-0.12750212097167968	5.9190439453125	0		
-0.028065391540527344	0.001961853981018066	0		0.45904656982421876	-2.373345947265625	0		-1.01299755859375	0.13613215637207032	0		-0.6445127563476563	-2.70329248046875	0		3.00103369140625	-0.260748779296875	0		4.2783232421875	-0.009661765098571777	0		5.4731455078125	-0.09126707458496094	0		5.93230078125	0.40226943969726564	0		-0.14123167419433594	5.90761181640625	0		
-0.03871563720703125	-0.008533917427062988	0		0.40264852905273435	-2.369086181640625	0		-1.0935081787109375	0.13477592468261718	0		-0.7060061645507812	-2.704957763671875	0		3.01079248046875	-0.24655467224121094	0		4.28858837890625	-0.02547111511230469	0		5.49988427734375	-0.07833427429199219	0		5.92795849609375	0.4107142639160156	0		-0.176804931640625	5.9045244140625	0		
-0.03206039047241211	-0.001326640009880066	0		0.42092303466796877	-2.386069580078125	0		-1.0831329345703125	0.12491361999511719	0		-0.655570068359375	-2.7124736328125	0		3.033627197265625	-0.2285927734375	0		4.30422607421875	-0.019385244369506834	0		5.51912841796875	-0.096303466796875	0		5.92749755859375	0.4110729675292969	0		-0.2104091796875	5.89838818359375	0		
-0.02944100761413574	0.0029307339191436766	0		0.4167508239746094	-2.369697021484375	0		-1.1175091552734375	0.12977232360839844	0		-0.6848193969726563	-2.70069580078125	0		3.072455810546875	-0.2119129180908203	0		4.347544921875	-0.03377733612060547	0		5.53248486328125	-0.10819883728027344	0		5.93090185546875	0.40234286499023436	0		-0.2089312286376953	5.895662109375	0		
0.04810633087158203	9.448230266571045E-4	0		0.4593426818847656	-2.369108642578125	0		-1.0029671020507813	0.12717716217041017	0		-0.6252451782226562	-2.701388916015625	0		3.128252197265625	-0.19853128051757812	0		4.373361328125	-0.018900672912597657	0		5.5600390625	-0.10934925842285156	0		5.9394736328125	0.40250469970703123	0		-0.16108619689941406	5.9131640625	0		
-0.030262754440307616	0.0034983570575714113	0		0.4299542236328125	-2.36835693359375	0		-1.0844014892578124	0.12577877807617188	0		-0.688694091796875	-2.704081298828125	0		3.13501953125	-0.1883663787841797	0		4.353853515625	-0.025305801391601563	0		5.56864208984375	-0.10921209716796874	0		5.9262265625	0.41200152587890626	0		-0.14257548522949218	5.9081298828125	0		
0.040239715576171876	-0.005402842998504639	0		0.4545125427246094	-2.373505126953125	0		-1.0077852172851562	0.12377813720703125	0		-0.6551369018554688	-2.709377197265625	0		3.14590673828125	-0.17328730773925782	0		4.38821337890625	-0.04261521530151367	0		5.59111865234375	-0.11932565307617188	0		5.93458984375	0.3951182556152344	0		-0.17702752685546874	5.90294775390625	0		
-0.03399556350708008	5.3112998604774476E-5	0		0.41118902587890627	-2.373556640625	0		-1.12306396484375	0.1269069595336914	0		-0.6785125732421875	-2.7127548828125	0		3.161724853515625	-0.1653087921142578	0		4.41296484375	-0.03878470993041992	0		5.59177490234375	-0.12110237884521484	0		5.9294111328125	0.40343814086914065	0		-0.17733277893066407	5.9031923828125	0		
0.04271946334838867	-0.001979364991188049	0		0.46686944580078127	-2.37724560546875	0		-1.0802623291015625	0.13043287658691408	0		-0.674711181640625	-2.708591064453125	0		3.170923583984375	-0.13723757934570313	0		4.4241962890625	-0.008748993873596192	0		5.61846337890625	-0.12432662963867187	0		5.9291533203125	0.40365509033203123	0		-0.16240129089355468	5.91417431640625	0		
-0.031389385223388674	0.004445116996765136	0		0.4038997192382813	-2.362003662109375	0		-1.1194573974609374	0.13128785705566406	0		-0.6518572387695313	-2.70475341796875	0		3.20363623046875	-0.14257374572753906	0		4.44068212890625	-0.027824762344360352	0		5.63137548828125	-0.1173437957763672	0		5.9289541015625	0.4038509521484375	0		-0.12949105834960936	5.91984619140625	0		
0.042379566192626957	-0.0015690749883651733	0		0.4556135559082031	-2.37065869140625	0		-1.00869287109375	0.12467145538330078	0		-0.692017578125	-2.704897705078125	0		3.200906494140625	-0.11734236907958985	0		4.47778369140625	-0.013252163887023926	0		5.64508642578125	-0.12639556121826173	0		5.92883251953125	0.405026123046875	0		-0.17788011169433593	5.9038330078125	0		
-0.03871736907958984	-0.0020588040351867676	0		0.399583984375	-2.366560791015625	0		-1.0965751953125	0.13729969787597657	0		-0.6581919555664062	-2.7102685546875	0		3.218910400390625	-0.11247075653076172	0		4.44682763671875	-0.005583685874938965	0		5.6450107421875	-0.12623980712890626	0		5.92489111328125	0.4132450256347656	0		-0.17891064453125	5.90503271484375	0		
0.04229541778564453	-0.0012194390296936036	0		0.43742477416992187	-2.375017578125	0		-1.08068408203125	0.13121214294433595	0		-0.694162841796875	-2.70650732421875	0		3.233898681640625	-0.11256791687011719	0		4.4698154296875	-0.00581919002532959	0		5.6450009765625	-0.12610517120361328	0		5.928736328125	0.40431365966796873	0		-0.1779018096923828	5.90418505859375	0		
-0.03155472946166992	0.005146615028381348	0		0.4166165771484375	-2.365524169921875	0		-1.1196199951171875	0.13201254272460938	0		-0.6792078857421875	-2.7115947265625	0		3.240332275390625	-0.08953886413574219	0		4.4857724609375	-0.011958898544311524	0		5.65985888671875	-0.13823585510253905	0		5.92879736328125	0.4044254455566406	0		-0.1957347412109375	5.90863427734375	0		
0.04654337310791016	0.003005821943283081	0		0.4597332763671875	-2.365094482421875	0		-1.09233349609375	0.14171598815917968	0		-0.6940205078125	-2.706204833984375	0		3.233769287109375	-0.07031346893310547	0		4.48843896484375	0.021106950759887694	0		5.6641298828125	-0.129208984375	0		5.92892529296875	0.40451702880859375	0		-0.16245208740234374	5.915232421875	0		
-0.034304222106933596	0.0014605000019073486	0		0.4288746337890625	-2.366464599609375	0		-1.0202333374023438	0.1356685028076172	0		-0.6250269775390624	-2.717205810546875	0		3.287116455078125	-0.061088851928710934	0		4.47225390625	-0.0015419189929962158	0		5.667466796875	-0.12018446350097656	0		5.92498876953125	0.39665646362304685	0		-0.17738819885253906	5.90460595703125	0		
0.04292250061035156	-6.94890022277832E-4	0		0.45605352783203124	-2.369802490234375	0		-1.095951904296875	0.1380356903076172	0		-0.7017715454101563	-2.714825927734375	0		3.2614716796875	-0.05458334732055664	0		4.49063671875	0.006229516983032227	0		5.67357080078125	-0.1292245330810547	0		5.925525390625	0.4137091064453125	0		-0.14298651123046874	5.91015771484375	0		
-0.04085263061523438	-0.005220789909362793	0		0.43826397705078124	-2.374417236328125	0		-1.0196651611328125	0.13588935852050782	0		-0.6177260131835938	-2.73010546875	0		3.258046875	-0.0384571647644043	0		4.4950634765625	0.013214020729064942	0		5.6738818359375	-0.1291842803955078	0		5.92556201171875	0.39674932861328127	0		-0.17671368408203125	5.9048115234375	0		
